<svg width="102" height="102" viewBox="0 0 102 102" fill="none" xmlns="http://www.w3.org/2000/svg">
<g clip-path="url(#clip0_7_2)">
<path d="M102 0H0V102H102V0Z" fill="black"/>
<path fill-rule="evenodd" clip-rule="evenodd" d="M67.9531 71.9518C72.5625 69.5385 72.8854 66.309 73.2081 57.9121C73.2083 52.4218 73.2081 47.9005 73.2081 47.9005C65.5115 51.8626 64.1765 52.9904 51.2737 40.2318C43.8678 32.9085 41.5588 30.138 38.6522 29.4921C34.1985 28.5024 31.87 30.138 30.2868 32.9699C27.9946 38.2119 28.9602 66.3621 30.3133 68.9793C31.5748 71.4183 35.3088 73.1519 38.1528 72.6178C42.9621 71.7162 44.8264 68.2081 44.8625 59.9915L44.8812 55.793L52.5908 63.544C59.3212 69.8614 61.5819 73.737 67.9531 71.9518Z" fill="white"/>
<path d="M65.1344 45.3168C69.5934 45.3168 73.2082 41.702 73.2082 37.2429C73.2082 32.7839 69.5934 29.1691 65.1344 29.1691C60.6753 29.1691 57.0605 32.7839 57.0605 37.2429C57.0605 41.702 60.6753 45.3168 65.1344 45.3168Z" fill="white"/>
</g>
<defs>
<clipPath id="clip0_7_2">
<rect width="102" height="102" rx="20" fill="white"/>
</clipPath>
</defs>
</svg>
