<svg width="45" height="44" viewBox="0 0 45 44" fill="none" xmlns="http://www.w3.org/2000/svg">
<path fill-rule="evenodd" clip-rule="evenodd" d="M39.0445 42.7828C43.6538 40.3694 43.9768 37.1399 44.2995 28.743C44.2997 23.2528 44.2995 18.7315 44.2995 18.7315C36.6029 22.6935 35.2679 23.8213 22.3651 11.0627C14.9592 3.73947 12.6502 0.968934 9.74361 0.323067C5.28988 -0.666652 2.96141 0.968934 1.37822 3.80083C-0.913994 9.04287 0.0516183 37.1931 1.40471 39.8102C2.66617 42.2492 6.40012 43.9829 9.24417 43.4487C14.0535 42.5471 15.9178 39.039 15.9539 30.8225L15.9726 26.6239L23.6821 34.3749C30.4126 40.6924 32.6733 44.568 39.0445 42.7828Z" fill="black"/>
<path d="M36.2258 16.1478C40.6848 16.1478 44.2996 12.533 44.2996 8.07388C44.2996 3.6148 40.6848 0 36.2258 0C31.7667 0 28.1519 3.6148 28.1519 8.07388C28.1519 12.533 31.7667 16.1478 36.2258 16.1478Z" fill="black"/>
</svg>
